<svg width="32" height="32" viewBox="0 0 32 32" fill="none" xmlns="http://www.w3.org/2000/svg">
<circle cx="16" cy="16" r="16" fill="#D0A616"/>
<path d="M5.34003 22.5421C5.20826 22.4955 5.14095 22.3515 5.18968 22.2205L8.62252 12.9926C9.10985 11.6826 10.5731 10.9986 11.8908 11.4647V11.4647C12.0225 11.5114 12.0898 11.6553 12.0411 11.7863L8.60826 21.0143C8.12094 22.3243 6.6577 23.0083 5.34003 22.5421V22.5421Z" fill="white"/>
<path d="M27.1951 22.5421C27.3269 22.4955 27.3942 22.3515 27.3454 22.2205L23.9126 12.9926C23.4253 11.6826 21.962 10.9986 20.6444 11.4647V11.4647C20.5126 11.5114 20.4453 11.6553 20.494 11.7863L23.9269 21.0143C24.4142 22.3243 25.8774 23.0083 27.1951 22.5421V22.5421Z" fill="white"/>
<path d="M16.1777 20.4351C16.0646 20.5158 15.9053 20.4911 15.8218 20.38L9.85801 12.432C9.02395 11.3205 9.26481 9.76499 10.396 8.95776V8.95776C10.5091 8.87704 10.6684 8.90171 10.7518 9.01286L16.7157 16.9608C17.5497 18.0724 17.3089 19.6278 16.1777 20.4351V20.4351Z" fill="white"/>
<path d="M16.425 20.4351C16.5381 20.5158 16.6974 20.4911 16.7808 20.38L22.7447 12.432C23.5787 11.3205 23.3379 9.76499 22.2067 8.95776V8.95776C22.0936 8.87704 21.9343 8.90171 21.8509 9.01286L15.887 16.9608C15.0529 18.0724 15.2938 19.6278 16.425 20.4351V20.4351Z" fill="white"/>
</svg>
