<svg width="165" height="125" viewBox="0 0 165 125" fill="none" xmlns="http://www.w3.org/2000/svg">
<circle cx="130" cy="63" r="35" fill="#D0A616"/>
<path d="M62.6645 0.657856C63.7076 0.294532 64.8478 0.845604 65.2111 1.88871L97.775 95.3798C101.408 105.811 95.8975 117.212 85.4664 120.846L81.689 122.161C80.6459 122.525 79.5058 121.973 79.1425 120.93L46.5786 27.4392C42.9453 17.0082 48.456 5.60681 58.8871 1.97357L62.6645 0.657856Z" fill="#BABFF9"/>
<path d="M22.6645 2.65786C23.7076 2.29453 24.8478 2.8456 25.2111 3.88871L57.775 97.3798C61.4082 107.811 55.8975 119.212 45.4664 122.846L41.689 124.161C40.6459 124.525 39.5058 123.973 39.1425 122.93L6.57856 29.4392C2.94532 19.0082 8.45604 7.60681 18.8871 3.97357L22.6645 2.65786Z" fill="#BABFF9"/>
<path d="M106.514 76.3592C106.23 76.2562 106.084 75.9423 106.187 75.6582L113.629 55.1445C114.659 52.3032 117.798 50.8356 120.639 51.8663V51.8663C120.924 51.9694 121.07 52.2833 120.967 52.5674L113.525 73.0811C112.495 75.9223 109.356 77.39 106.514 76.3592V76.3592Z" fill="white"/>
<path d="M153.639 76.3592C153.924 76.2562 154.07 75.9423 153.967 75.6582L146.525 55.1445C145.495 52.3032 142.356 50.8356 139.514 51.8663V51.8663C139.23 51.9694 139.084 52.2833 139.187 52.5674L146.629 73.0811C147.659 75.9223 150.798 77.39 153.639 76.3592V76.3592Z" fill="white"/>
<path d="M129.883 71.7003C129.639 71.8788 129.297 71.8258 129.118 71.5819L116.232 53.9714C114.447 51.5322 114.977 48.108 117.416 46.3232V46.3232C117.66 46.1447 118.003 46.1977 118.181 46.4416L131.068 64.0521C132.853 66.4913 132.322 69.9155 129.883 71.7003V71.7003Z" fill="white"/>
<path d="M130.416 71.7003C130.66 71.8788 131.003 71.8258 131.181 71.5819L144.068 53.9714C145.853 51.5322 145.322 48.108 142.883 46.3232V46.3232C142.639 46.1447 142.297 46.1977 142.118 46.4416L129.232 64.0521C127.447 66.4913 127.977 69.9155 130.416 71.7003V71.7003Z" fill="white"/>
</svg>
